<svg width="55" height="70" viewBox="0 0 55 70" fill="none" xmlns="http://www.w3.org/2000/svg">
<path d="M45.1492 42.8845L9.17267 42.8845L9.17267 42.8318L9.11993 42.8845L4.65216 38.3943L9.11993 33.9041L9.17267 33.9568L9.17267 33.9041L45.1492 33.9041L49.617 38.3943L45.1492 42.8845Z" fill="#4953C3"/>
<path d="M20.7943 66.8248L3.15955 49.1016L3.15955 42.7522L9.47796 42.7515L27.1127 60.4747L27.112 66.8248L20.7943 66.8248Z" fill="#4953C3"/>
<path d="M27.8883 60.4748L27.8876 60.4741L45.5224 42.7509L51.8401 42.7509L51.8408 49.101L34.206 66.8242L34.2053 66.8235L27.8876 66.8235L27.8883 60.4748Z" fill="#4953C3"/>
<path d="M45.1493 9.58154L9.17271 9.58154L9.17271 9.52881L9.11998 9.58154L4.65221 5.09131L9.11998 0.601072L9.17271 0.653807L9.17271 0.601072L45.1493 0.601074L49.617 5.09131L45.1493 9.58154Z" fill="#4953C3"/>
<path d="M20.7944 33.5218L3.1596 15.7986L3.1596 9.44921L9.478 9.44852L27.1128 27.1717L27.1121 33.5218L20.7944 33.5218Z" fill="#4953C3"/>
<path d="M27.8884 27.1718L27.8877 27.1711L45.5225 9.44792L51.8402 9.44792L51.8409 15.798L34.2061 33.5212L34.2054 33.5205L27.8877 33.5205L27.8884 27.1718Z" fill="#4953C3"/>
</svg>
