<svg width="54" height="66" viewBox="0 0 54 66" fill="none" xmlns="http://www.w3.org/2000/svg">
<path d="M9.67255 56.9779L9.67255 56.9789L44.9938 56.9789L44.9938 57.0297L45.0456 56.9779L49.4323 61.3939L45.0456 65.8099L44.9938 65.7582L44.9938 65.8099L9.67255 65.8099L5.28583 61.3939L9.67255 56.9779Z" fill="#4953C3"/>
<path d="M26.619 39.6809L9.30581 57.1097L3.10276 57.1104L3.10276 50.8652L3.10207 50.8645L20.4153 33.4358L26.619 33.4358L26.619 39.6809Z" fill="#4953C3"/>
<path d="M33.5838 33.437L33.5845 33.4363L50.8977 50.8651L50.8984 50.8657L50.8977 57.1102L44.6953 57.1102L44.6946 57.1095L27.3814 39.6821L27.3814 33.437L33.5838 33.437Z" fill="#4953C3"/>
<path d="M44.3275 9.11108L44.3275 9.11011L9.00622 9.1101L9.00622 9.05932L8.95447 9.11108L4.56775 4.69506L8.95447 0.279044L9.00623 0.330802L9.00623 0.279044L44.3275 0.279052L48.7142 4.69507L44.3275 9.11108Z" fill="#4953C3"/>
<path d="M27.381 26.408L44.6942 8.97931L50.8972 8.97862L50.8972 15.2238L50.8979 15.2244L33.5847 32.6532L27.381 32.6532L27.381 26.408Z" fill="#4953C3"/>
<path d="M20.4162 32.6521L20.4155 32.6528L3.10233 15.2241L3.10164 15.2234L3.10233 8.97891L9.3047 8.97892L9.30539 8.97961L26.6186 26.407L26.6186 32.6521L20.4162 32.6521Z" fill="#4953C3"/>
</svg>
