<svg width="1440" height="49" viewBox="0 0 1440 49" fill="none" xmlns="http://www.w3.org/2000/svg">
<path d="M1451 28.2422L-1.48608 28.242" stroke="white"/>
<path d="M1451 15.627L-1.48614 15.6267" stroke="white"/>
<g opacity="0.4">
<path d="M658.66 0.953317L658.66 48.6719" stroke="white"/>
<path d="M968.274 0.953317L968.274 48.6719" stroke="white"/>
<circle cx="968.275" cy="27.6661" r="4.73816" transform="rotate(-180 968.275 27.6661)" stroke="white"/>
<path d="M451.715 0.953317L451.715 48.6719" stroke="white"/>
<path d="M1173.55 0.953317L1173.55 48.6719" stroke="white"/>
<path d="M1173.55 32.4043C1170.92 32.4041 1168.78 30.2803 1168.78 27.666C1168.78 25.0518 1170.92 22.9279 1173.55 22.9277C1176.18 22.9277 1178.31 25.0517 1178.31 27.666C1178.31 30.2804 1176.18 32.4043 1173.55 32.4043Z" stroke="white"/>
<path d="M1379.23 0.955758L1379.23 48.6743" stroke="white"/>
<path d="M1379.23 32.4067C1376.6 32.4066 1374.47 30.2827 1374.47 27.6685C1374.47 25.0542 1376.6 22.9303 1379.23 22.9302C1381.87 22.9302 1384 25.0541 1384 27.6685C1384 30.2828 1381.87 32.4067 1379.23 32.4067Z" stroke="white"/>
<path d="M451.715 32.4043C449.081 32.4041 446.95 30.2803 446.95 27.666C446.95 25.0518 449.081 22.9279 451.715 22.9277C454.349 22.9277 456.48 25.0517 456.48 27.666C456.48 30.2804 454.349 32.4043 451.715 32.4043Z" stroke="white"/>
<path d="M658.659 32.4043C656.025 32.4041 653.895 30.2803 653.895 27.666C653.895 25.0518 656.025 22.9279 658.659 22.9277C661.294 22.9277 663.425 25.0517 663.425 27.666C663.425 30.2804 661.294 32.4043 658.659 32.4043Z" stroke="white"/>
<path d="M245.904 0.000243181L245.904 48.6719" stroke="white"/>
<path d="M245.904 32.4043C243.27 32.4041 241.139 30.2803 241.139 27.666C241.139 25.0518 243.27 22.9279 245.904 22.9277C248.538 22.9277 250.669 25.0517 250.669 27.666C250.669 30.2804 248.538 32.4043 245.904 32.4043Z" stroke="white"/>
<path d="M61.2496 0.000243181L61.2496 48.6719" stroke="white"/>
<path d="M61.2493 32.4043C58.6151 32.4041 56.4846 30.2803 56.4846 27.666C56.4847 25.0518 58.6152 22.9279 61.2493 22.9277C63.8835 22.9277 66.0148 25.0517 66.0149 27.666C66.0149 30.2804 63.8835 32.4043 61.2493 32.4043Z" stroke="white"/>
</g>
</svg>
