<svg width="1440" height="761" viewBox="0 0 1440 761" fill="none" xmlns="http://www.w3.org/2000/svg">
<path d="M40.8002 679.85L324.929 679.85" stroke="#313C4B"/>
<path d="M1108.7 153.282V1" stroke="#313C4B"/>
<path d="M1222.1 261.282L1222.1 0" stroke="#313C4B"/>
<path d="M61 760.282L61 0.282181" stroke="#313C4B"/>
<path d="M40.8002 491.282H97.6693" stroke="#313C4B"/>
<path d="M1384.01 344.336L1372.07 332.537" stroke="#313C4B"/>
<path d="M1372.07 344.336L1384.01 332.537" stroke="#313C4B"/>
<path d="M1403.51 338.437L1313.46 338.437" stroke="#313C4B"/>
<path d="M40.8002 48.4968L1399.53 48.4968" stroke="#313C4B"/>
<path d="M1379.06 450.282V1.69336" stroke="#313C4B"/>
<circle cx="1379" cy="48.4966" r="6.60982" stroke="#313C4B"/>
<circle cx="1222.1" cy="48.4966" r="6.60982" stroke="#313C4B"/>
<g clip-path="url(#clip0_1_226)">
<path d="M1386.94 8.69294V7.91516H1388.07V2.9803L1387.35 3.65079L1386.84 3.14122L1388.21 1.69294H1388.93V7.92857H1390.09V8.70635H1386.94V8.69294Z" fill="#313C4B"/>
<path d="M1395.27 8.69294H1393.48C1392.58 8.69294 1391.92 8.06267 1391.92 7.1642V4.56267C1391.92 2.8462 1393.18 1.69294 1394.67 1.69294H1395.46V2.51095H1394.71C1393.67 2.51095 1392.8 3.38259 1392.8 4.45539V4.76382H1395.28C1396.2 4.76382 1396.84 5.42091 1396.84 6.29256V7.15079C1396.84 8.03585 1396.19 8.67953 1395.28 8.67953L1395.27 8.69294ZM1395.98 6.22551C1395.98 5.90367 1395.71 5.58183 1395.37 5.58183H1392.8V7.21784C1392.8 7.53968 1393.07 7.86152 1393.41 7.86152H1395.37C1395.71 7.86152 1395.98 7.55309 1395.98 7.21784V6.2121V6.22551Z" fill="#313C4B"/>
</g>
<g clip-path="url(#clip1_1_226)">
<path d="M72.0223 8.69294H70.2763C69.4531 8.69294 68.8545 8.03585 68.8545 7.1642V3.22168C68.842 2.35003 69.4531 1.69294 70.2638 1.69294H72.0098C72.8454 1.69294 73.4316 2.35003 73.4316 3.22168V7.15079C73.4316 8.03585 72.833 8.67953 72.0098 8.67953L72.0223 8.69294ZM72.6584 3.15463C72.6584 2.83279 72.4089 2.51095 72.0971 2.51095H70.189C69.8772 2.51095 69.6277 2.81938 69.6277 3.15463V7.23125C69.6277 7.55309 69.8772 7.87493 70.189 7.87493H72.0971C72.4089 7.87493 72.6584 7.5665 72.6584 7.23125V3.15463ZM71.486 5.6757H70.825C70.7627 5.6757 70.7128 5.62206 70.7128 5.55501V4.84428C70.7128 4.77723 70.7627 4.72359 70.825 4.72359H71.486C71.5484 4.72359 71.5983 4.77723 71.5983 4.84428V5.55501C71.5983 5.62206 71.5484 5.6757 71.486 5.6757Z" fill="#313C4B"/>
<path d="M78.4203 8.69294H76.6742C75.8511 8.69294 75.2525 8.03585 75.2525 7.1642V3.22168C75.2525 2.33662 75.8636 1.69294 76.6742 1.69294H78.4203C79.2559 1.69294 79.842 2.35003 79.842 3.22168V7.15079C79.842 8.03585 79.2434 8.67953 78.4203 8.67953V8.69294ZM79.0563 3.15463C79.0563 2.83279 78.8069 2.51095 78.4951 2.51095H76.5869C76.2751 2.51095 76.0257 2.81938 76.0257 3.15463V7.23125C76.0257 7.55309 76.2751 7.87493 76.5869 7.87493H78.4951C78.8069 7.87493 79.0563 7.5665 79.0563 7.23125V3.15463ZM77.884 5.6757H77.223C77.1606 5.6757 77.1107 5.62206 77.1107 5.55501V4.84428C77.1107 4.77723 77.1606 4.72359 77.223 4.72359H77.884C77.9463 4.72359 77.9962 4.77723 77.9962 4.84428V5.55501C77.9962 5.62206 77.9463 5.6757 77.884 5.6757Z" fill="#313C4B"/>
</g>
<g clip-path="url(#clip2_1_226)">
<path d="M1121.08 8.69294H1119.3C1118.46 8.69294 1117.85 8.03585 1117.85 7.1642V3.22168C1117.84 2.35003 1118.46 1.69294 1119.29 1.69294H1121.07C1121.92 1.69294 1122.52 2.35003 1122.52 3.22168V7.15079C1122.52 8.03585 1121.91 8.67953 1121.07 8.67953L1121.08 8.69294ZM1121.73 3.15463C1121.73 2.83279 1121.47 2.51095 1121.16 2.51095H1119.21C1118.9 2.51095 1118.64 2.81938 1118.64 3.15463V7.23125C1118.64 7.55309 1118.9 7.87493 1119.21 7.87493H1121.16C1121.47 7.87493 1121.73 7.5665 1121.73 7.23125V3.15463ZM1120.53 5.6757H1119.86C1119.8 5.6757 1119.75 5.62206 1119.75 5.55501V4.84428C1119.75 4.77723 1119.8 4.72359 1119.86 4.72359H1120.53C1120.6 4.72359 1120.65 4.77723 1120.65 4.84428V5.55501C1120.65 5.62206 1120.6 5.6757 1120.53 5.6757Z" fill="#313C4B"/>
<path d="M1124.36 8.69294V7.91516C1124.36 5.6757 1127.97 4.95156 1127.97 3.63739V3.16804C1127.97 2.8462 1127.7 2.52436 1127.39 2.52436H1125.74C1125.44 2.52436 1125.17 2.83279 1125.17 3.16804V3.55693H1124.35V3.28873C1124.35 2.40367 1124.94 1.67953 1125.78 1.67953H1127.32C1128.16 1.67953 1128.79 2.25616 1128.79 3.14122V3.66421C1128.79 5.56842 1125.25 6.27915 1125.25 7.76765V7.86152H1128.84V8.67953H1124.36V8.69294Z" fill="#313C4B"/>
</g>
<g clip-path="url(#clip3_1_226)">
<path d="M1232.03 8.69294H1230.28C1229.45 8.69294 1228.85 8.03585 1228.85 7.1642V3.22168C1228.84 2.35003 1229.45 1.69294 1230.27 1.69294H1232.02C1232.85 1.69294 1233.44 2.35003 1233.44 3.22168V7.15079C1233.44 8.03585 1232.84 8.67953 1232.02 8.67953L1232.03 8.69294ZM1232.67 3.15463C1232.67 2.83279 1232.42 2.51095 1232.1 2.51095H1230.19C1229.88 2.51095 1229.63 2.81938 1229.63 3.15463V7.23125C1229.63 7.55309 1229.88 7.87493 1230.19 7.87493H1232.1C1232.42 7.87493 1232.67 7.5665 1232.67 7.23125V3.15463ZM1231.49 5.6757H1230.83C1230.77 5.6757 1230.72 5.62206 1230.72 5.55501V4.84428C1230.72 4.77723 1230.77 4.72359 1230.83 4.72359H1231.49C1231.55 4.72359 1231.6 4.77723 1231.6 4.84428V5.55501C1231.6 5.62206 1231.55 5.6757 1231.49 5.6757Z" fill="#313C4B"/>
<path d="M1239.08 6.82895V8.70635H1238.27V6.82895H1235.25V5.19294L1238.35 1.69294H1239.09V5.99754H1239.85V6.81555H1239.09L1239.08 6.82895ZM1238.27 2.9803L1236.04 5.47455V5.99754H1238.27V2.9803Z" fill="#313C4B"/>
</g>
<path d="M67.2194 685.75L55.2782 673.95" stroke="#313C4B"/>
<path d="M55.2779 685.75L67.2191 673.95" stroke="#313C4B"/>
<defs>
<clipPath id="clip0_1_226">
<rect width="10" height="7" fill="white" transform="translate(1386.84 1.69294)"/>
</clipPath>
<clipPath id="clip1_1_226">
<rect width="11" height="7" fill="white" transform="translate(68.842 1.69294)"/>
</clipPath>
<clipPath id="clip2_1_226">
<rect width="11" height="7" fill="white" transform="translate(1117.84 1.69294)"/>
</clipPath>
<clipPath id="clip3_1_226">
<rect width="11" height="7" fill="white" transform="translate(1228.84 1.69294)"/>
</clipPath>
</defs>
</svg>
