<svg width="200" height="60" viewBox="0 0 200 60" fill="none" xmlns="http://www.w3.org/2000/svg">
<path d="M70.7104 36.6726L64.5167 18.7503H59.9135L68.0895 41.0704H73.2952L81.5013 18.7503H76.9042L70.7104 36.6726Z" fill="#313C4B"/>
<path d="M90.9064 18.7505H86.5925V41.0706H90.9064V18.7505Z" fill="#313C4B"/>
<path d="M104.276 18.7505L96.2628 41.0706H100.703L102.505 35.9388H113.181L114.977 41.0706H119.417L111.404 18.7505H104.282H104.276ZM103.77 32.335L107.277 22.3542H108.427L111.916 32.335H103.77Z" fill="#313C4B"/>
<path d="M119.917 22.3542H126.846V41.0706H131.154V22.3542H138.053V18.7505H119.917V22.3542Z" fill="#313C4B"/>
<path d="M147.783 18.7505H143.469V41.0706H147.783V18.7505Z" fill="#313C4B"/>
<path d="M173.082 18.7505H167.81L159.96 27.9673H158.646V18.7505H154.338V41.0706H158.646V31.571H159.96L167.81 41.0706H173.335L163.822 29.724L173.082 18.7505Z" fill="#313C4B"/>
<path d="M195.387 41.0706H199.828L191.814 18.7505H184.693L176.679 41.0706H181.12L182.921 35.9388H193.598L195.393 41.0706H195.387ZM184.186 32.335L187.693 22.3542H188.844L192.332 32.335H184.186Z" fill="#313C4B"/>
<path d="M22.6495 14.8687L0.165833 0.0195312V59.8024L22.6435 44.9532L45.1212 59.8024V0.0195312L22.6435 14.8687H22.6495ZM37.7692 29.911L22.6495 39.9001L7.52983 29.911L22.6495 19.9219L37.7692 29.911ZM41.2945 32.6409V52.2192L26.4761 42.4301L41.2945 32.6409ZM26.4761 17.3988L41.2945 7.60958V27.1879L26.4761 17.3988ZM3.99849 27.1879V7.60958L18.8169 17.3988L3.99849 27.1879ZM18.8169 42.4301L3.99849 52.2192V32.6409L18.8169 42.4301Z" fill="#313C4B"/>
</svg>
