<svg width="188" height="57" viewBox="0 0 188 57" fill="none" xmlns="http://www.w3.org/2000/svg">
<path d="M66.4678 34.5332L60.6457 17.6724H56.3187L64.0042 38.6706H68.8975L76.6113 17.6724H72.29L66.4678 34.5332Z" fill="white"/>
<path d="M85.4521 17.6724H81.397V38.6706H85.4521V17.6724Z" fill="white"/>
<path d="M98.0195 17.6724L90.4869 38.6706H94.661L96.3544 33.8427H106.39L108.078 38.6706H112.252L104.719 17.6724H98.0251H98.0195ZM97.5437 30.4524L100.84 21.0626H101.922L105.201 30.4524H97.5437Z" fill="white"/>
<path d="M112.722 21.0626H119.235V38.6706H123.285V21.0626H129.769V17.6724H112.722V21.0626Z" fill="white"/>
<path d="M138.916 17.6724H134.861V38.6706H138.916V17.6724Z" fill="white"/>
<path d="M162.697 17.6724H157.742L150.362 26.3433H149.127V17.6724H145.078V38.6706H149.127V29.7336H150.362L157.742 38.6706H162.935L153.992 27.996L162.697 17.6724Z" fill="white"/>
<path d="M183.664 38.6706H187.838L180.305 17.6724H173.611L166.078 38.6706H170.253L171.946 33.8427H181.982L183.67 38.6706H183.664ZM173.135 30.4524L176.431 21.0626H177.513L180.792 30.4524H173.135Z" fill="white"/>
<path d="M21.2905 14.0206L0.155884 0.0507812V56.2931L21.2849 42.3233L42.4139 56.2931V0.0507812L21.2849 14.0206H21.2905ZM35.5031 28.1719L21.2905 37.5694L7.07804 28.1719L21.2905 18.7744L35.5031 28.1719ZM38.8169 30.7402V49.159L24.8876 39.9496L38.8169 30.7402ZM24.8876 16.4007L38.8169 7.19133V25.6102L24.8876 16.4007ZM3.75858 25.6102V7.19133L17.6879 16.4007L3.75858 25.6102ZM17.6879 39.9496L3.75858 49.159V30.7402L17.6879 39.9496Z" fill="#1CD874"/>
</svg>
