<svg width="402" height="49" viewBox="0 0 402 49" fill="none" xmlns="http://www.w3.org/2000/svg">
<path d="M461 27.9346L-50 27.9343" stroke="white"/>
<path d="M461 15.9346L-50 15.9343" stroke="white"/>
<path d="M389.201 0.953317L389.201 48.6719" stroke="white"/>
<path d="M389.201 32.4043C386.567 32.4041 384.436 30.2803 384.436 27.666C384.436 25.0518 386.567 22.9279 389.201 22.9277C391.835 22.9277 393.966 25.0517 393.967 27.666C393.967 30.2804 391.835 32.4043 389.201 32.4043Z" stroke="white"/>
<path d="M201.39 0.000243181L201.39 48.6719" stroke="white"/>
<path d="M201.39 32.4043C198.756 32.4041 196.625 30.2803 196.625 27.666C196.625 25.0518 198.756 22.9279 201.39 22.9277C204.024 22.9277 206.155 25.0517 206.156 27.666C206.156 30.2804 204.024 32.4043 201.39 32.4043Z" stroke="white"/>
<path d="M12.7356 0.000243181L12.7356 48.6719" stroke="white"/>
<path d="M12.7354 32.4043C10.1012 32.4041 7.9707 30.2803 7.9707 27.666C7.97077 25.0518 10.1013 22.9279 12.7354 22.9277C15.3696 22.9277 17.5009 25.0517 17.501 27.666C17.501 30.2804 15.3696 32.4043 12.7354 32.4043Z" stroke="white"/>
</svg>
