<svg width="319" height="287" viewBox="0 0 319 287" fill="none" xmlns="http://www.w3.org/2000/svg">
<path d="M295.938 74.2034L295.939 74.2042L344.203 25.9405L344.202 25.9396L344.203 25.9396L344.203 8.6465L326.91 8.6465L326.91 8.64818L278.648 56.9098L278.647 56.9098V74.203L295.938 74.2034Z" fill="#4953C3"/>
<path d="M56.9124 146.694L56.9107 146.693L8.64694 194.956L8.64778 194.957L8.64694 194.957L8.64694 212.25L25.9401 212.25L25.9401 212.249L74.2021 163.987L74.2038 163.987L74.2038 146.694L56.9124 146.694Z" fill="#8C95EF"/>
<mask id="mask0_248_360" style="mask-type:alpha" maskUnits="userSpaceOnUse" x="279" y="77" width="67" height="67">
<path d="M279.141 94.8415L279.14 94.8424L327.994 143.053L327.995 143.052L327.995 143.819L345.499 143.819L345.499 125.78L345.498 125.78L345.499 125.779L296.645 77.5692L296.646 77.5688L296.645 77.5688L296.644 77.5684L296.644 77.5688L279.141 77.5688L279.141 94.8415Z" fill="#D9D9D9"/>
</mask>
<g mask="url(#mask0_248_360)">
<path d="M276.869 82.5797L347.213 82.5797V81.9744L276.869 81.9744L276.869 82.5797Z" fill="#1CD874"/>
<path d="M276.869 81.4565L347.213 81.4565V80.8512L276.869 80.8512L276.869 81.4565Z" fill="#1CD874"/>
<path d="M276.869 80.3335L347.213 80.3335V79.7282L276.869 79.7282L276.869 80.3335Z" fill="#1CD874"/>
<path d="M276.869 79.2102L347.213 79.2102V78.6049L276.869 78.6049L276.869 79.2102Z" fill="#1CD874"/>
<path d="M276.869 78.0877L347.213 78.0877V77.4824L276.869 77.4824L276.869 78.0877Z" fill="#1CD874"/>
<path d="M276.869 76.9642L347.213 76.9642V76.3589L276.869 76.3589L276.869 76.9642Z" fill="#1CD874"/>
<path d="M276.869 75.8421L347.213 75.8421V75.2368L276.869 75.2368L276.869 75.8421Z" fill="#1CD874"/>
<path d="M276.869 90.4408H347.213V89.8354L276.869 89.8354L276.869 90.4408Z" fill="#1CD874"/>
<path d="M276.869 89.3173H347.213V88.712L276.869 88.712L276.869 89.3173Z" fill="#1CD874"/>
<path d="M276.869 88.1945H347.213V87.5892L276.869 87.5892L276.869 88.1945Z" fill="#1CD874"/>
<path d="M276.869 87.0713H347.213V86.466L276.869 86.466L276.869 87.0713Z" fill="#1CD874"/>
<path d="M276.869 85.9485H347.213V85.3432L276.869 85.3432L276.869 85.9485Z" fill="#1CD874"/>
<path d="M276.869 84.8257H347.213V84.2204L276.869 84.2204L276.869 84.8257Z" fill="#1CD874"/>
<path d="M276.869 83.7025H347.213V83.0972L276.869 83.0972L276.869 83.7025Z" fill="#1CD874"/>
<path d="M276.869 98.3016H347.213V97.6962H276.869L276.869 98.3016Z" fill="#1CD874"/>
<path d="M276.869 97.1781H347.213V96.5728H276.869L276.869 97.1781Z" fill="#1CD874"/>
<path d="M276.869 96.0553H347.213V95.45H276.869L276.869 96.0553Z" fill="#1CD874"/>
<path d="M276.869 94.9321H347.213V94.3268H276.869L276.869 94.9321Z" fill="#1CD874"/>
<path d="M276.869 93.8093H347.213V93.204H276.869L276.869 93.8093Z" fill="#1CD874"/>
<path d="M276.869 92.6868H347.213V92.0814H276.869L276.869 92.6868Z" fill="#1CD874"/>
<path d="M276.869 91.5633H347.213V90.958L276.869 90.958L276.869 91.5633Z" fill="#1CD874"/>
<path d="M276.869 106.162H347.213V105.557H276.869L276.869 106.162Z" fill="#1CD874"/>
<path d="M276.869 105.039H347.213V104.434H276.869L276.869 105.039Z" fill="#1CD874"/>
<path d="M276.869 103.916H347.213V103.311H276.869L276.869 103.916Z" fill="#1CD874"/>
<path d="M276.869 102.794H347.213V102.188H276.869L276.869 102.794Z" fill="#1CD874"/>
<path d="M276.869 101.67H347.213V101.065H276.869L276.869 101.67Z" fill="#1CD874"/>
<path d="M276.869 100.548H347.213V99.9423H276.869L276.869 100.548Z" fill="#1CD874"/>
<path d="M276.869 99.4241H347.213V98.8188H276.869L276.869 99.4241Z" fill="#1CD874"/>
<path d="M276.869 114.023H347.213V113.418H276.869L276.869 114.023Z" fill="#1CD874"/>
<path d="M276.869 112.9H347.213V112.295H276.869L276.869 112.9Z" fill="#1CD874"/>
<path d="M276.869 111.777H347.213V111.172H276.869L276.869 111.777Z" fill="#1CD874"/>
<path d="M276.869 110.654H347.213V110.049H276.869L276.869 110.654Z" fill="#1CD874"/>
<path d="M276.869 109.531H347.213V108.926H276.869L276.869 109.531Z" fill="#1CD874"/>
<path d="M276.869 108.408H347.213V107.803H276.869L276.869 108.408Z" fill="#1CD874"/>
<path d="M276.869 107.285H347.213V106.68H276.869L276.869 107.285Z" fill="#1CD874"/>
<path d="M276.869 121.884L347.213 121.884V121.279H276.869L276.869 121.884Z" fill="#1CD874"/>
<path d="M276.869 120.761L347.213 120.761V120.156H276.869L276.869 120.761Z" fill="#1CD874"/>
<path d="M276.869 119.638H347.213V119.033H276.869L276.869 119.638Z" fill="#1CD874"/>
<path d="M276.869 118.515L347.213 118.515V117.909H276.869L276.869 118.515Z" fill="#1CD874"/>
<path d="M276.869 117.392L347.213 117.392V116.787H276.869L276.869 117.392Z" fill="#1CD874"/>
<path d="M276.869 116.269L347.213 116.269V115.664H276.869L276.869 116.269Z" fill="#1CD874"/>
<path d="M276.869 115.146L347.213 115.146V114.541H276.869L276.869 115.146Z" fill="#1CD874"/>
<path d="M276.869 129.745L347.213 129.745V129.14H276.869L276.869 129.745Z" fill="#1CD874"/>
<path d="M276.869 128.622L347.213 128.622V128.016H276.869L276.869 128.622Z" fill="#1CD874"/>
<path d="M276.869 127.499H347.213V126.894H276.869L276.869 127.499Z" fill="#1CD874"/>
<path d="M276.869 126.376H347.213V125.77H276.869L276.869 126.376Z" fill="#1CD874"/>
<path d="M276.869 125.253L347.213 125.253V124.648H276.869L276.869 125.253Z" fill="#1CD874"/>
<path d="M276.869 124.13L347.213 124.13V123.524H276.869L276.869 124.13Z" fill="#1CD874"/>
<path d="M276.869 123.007H347.213V122.402H276.869L276.869 123.007Z" fill="#1CD874"/>
<path d="M276.869 137.605H347.213V137H276.869L276.869 137.605Z" fill="#1CD874"/>
<path d="M276.869 136.483L347.213 136.483V135.877H276.869L276.869 136.483Z" fill="#1CD874"/>
<path d="M276.869 135.359H347.213V134.754H276.869L276.869 135.359Z" fill="#1CD874"/>
<path d="M276.869 134.237H347.213V133.631H276.869L276.869 134.237Z" fill="#1CD874"/>
<path d="M276.869 133.113H347.213V132.508H276.869L276.869 133.113Z" fill="#1CD874"/>
<path d="M276.869 131.991L347.213 131.991V131.385H276.869L276.869 131.991Z" fill="#1CD874"/>
<path d="M276.869 130.868H347.213V130.263H276.869L276.869 130.868Z" fill="#1CD874"/>
<path d="M276.869 145.466H347.213V144.861H276.869L276.869 145.466Z" fill="#1CD874"/>
<path d="M276.869 143.386H347.213V142.78H276.869L276.869 143.386Z" fill="#1CD874"/>
<path d="M276.869 142.097H347.213V141.492L276.869 141.492L276.869 142.097Z" fill="#1CD874"/>
<path d="M276.869 140.974H347.213V140.369H276.869L276.869 140.974Z" fill="#1CD874"/>
<path d="M276.869 139.851H347.213V139.246H276.869L276.869 139.851Z" fill="#1CD874"/>
<path d="M276.869 138.729H347.213V138.123H276.869L276.869 138.729Z" fill="#1CD874"/>
</g>
<mask id="mask1_248_360" style="mask-type:alpha" maskUnits="userSpaceOnUse" x="211" y="146" width="66" height="66">
<path d="M211.038 163.832L211.037 163.833L259.014 211.81L259.015 211.81L259.015 211.811L276.205 211.811L276.205 194.62L276.204 194.62L276.205 194.62L228.228 146.644L228.228 146.643L211.038 146.643L211.038 163.832Z" fill="#8C95EF"/>
</mask>
<g mask="url(#mask1_248_360)">
<path d="M208.806 151.63L277.887 151.63L277.887 151.025L208.806 151.025L208.806 151.63Z" fill="#8C95EF"/>
<path d="M208.806 150.513L277.887 150.513L277.887 149.907L208.806 149.907L208.806 150.513Z" fill="#8C95EF"/>
<path d="M208.806 149.395L277.887 149.395L277.887 148.79L208.806 148.79L208.806 149.395Z" fill="#8C95EF"/>
<path d="M208.806 148.278L277.887 148.278L277.887 147.672L208.806 147.672L208.806 148.278Z" fill="#8C95EF"/>
<path d="M208.806 147.16L277.887 147.16L277.887 146.555L208.806 146.555L208.806 147.16Z" fill="#8C95EF"/>
<path d="M208.806 159.453L277.887 159.453L277.887 158.847L208.806 158.847L208.806 159.453Z" fill="#8C95EF"/>
<path d="M208.806 158.336L277.887 158.336L277.887 157.73L208.806 157.73L208.806 158.336Z" fill="#8C95EF"/>
<path d="M208.806 157.217L277.887 157.217L277.887 156.612L208.806 156.612L208.806 157.217Z" fill="#8C95EF"/>
<path d="M208.806 156.1L277.887 156.1L277.887 155.495L208.806 155.495L208.806 156.1Z" fill="#8C95EF"/>
<path d="M208.806 154.983L277.887 154.983L277.887 154.378L208.806 154.378L208.806 154.983Z" fill="#8C95EF"/>
<path d="M208.806 153.865L277.887 153.865L277.887 153.26L208.806 153.26L208.806 153.865Z" fill="#8C95EF"/>
<path d="M208.806 152.748L277.887 152.748L277.887 152.143L208.806 152.143L208.806 152.748Z" fill="#8C95EF"/>
<path d="M208.806 167.276L277.887 167.276L277.887 166.671L208.806 166.671L208.806 167.276Z" fill="#8C95EF"/>
<path d="M208.806 166.158L277.887 166.158L277.887 165.553L208.806 165.553L208.806 166.158Z" fill="#8C95EF"/>
<path d="M208.806 165.041L277.887 165.041L277.887 164.436L208.806 164.436L208.806 165.041Z" fill="#8C95EF"/>
<path d="M208.806 163.923L277.887 163.923L277.887 163.318L208.806 163.318L208.806 163.923Z" fill="#8C95EF"/>
<path d="M208.806 162.805L277.887 162.805L277.887 162.2L208.806 162.2L208.806 162.805Z" fill="#8C95EF"/>
<path d="M208.806 161.688L277.887 161.688L277.887 161.083L208.806 161.083L208.806 161.688Z" fill="#8C95EF"/>
<path d="M208.806 160.57L277.887 160.57L277.887 159.965L208.806 159.965L208.806 160.57Z" fill="#8C95EF"/>
<path d="M208.806 175.099L277.887 175.099L277.887 174.493L208.806 174.493L208.806 175.099Z" fill="#8C95EF"/>
<path d="M208.806 173.981L277.887 173.981L277.887 173.375L208.806 173.375L208.806 173.981Z" fill="#8C95EF"/>
<path d="M208.806 172.864L277.887 172.864L277.887 172.258L208.806 172.258L208.806 172.864Z" fill="#8C95EF"/>
<path d="M208.806 171.746L277.887 171.746L277.887 171.14L208.806 171.14L208.806 171.746Z" fill="#8C95EF"/>
<path d="M208.806 170.628L277.887 170.628L277.887 170.023L208.806 170.023L208.806 170.628Z" fill="#8C95EF"/>
<path d="M208.806 169.511L277.887 169.511L277.887 168.906L208.806 168.906L208.806 169.511Z" fill="#8C95EF"/>
<path d="M208.806 168.393L277.887 168.393L277.887 167.788L208.806 167.788L208.806 168.393Z" fill="#8C95EF"/>
<path d="M208.806 182.921L277.887 182.921L277.887 182.316L208.806 182.316L208.806 182.921Z" fill="#8C95EF"/>
<path d="M208.806 181.804L277.887 181.804L277.887 181.198L208.806 181.198L208.806 181.804Z" fill="#8C95EF"/>
<path d="M208.806 180.686L277.887 180.686L277.887 180.081L208.806 180.081L208.806 180.686Z" fill="#8C95EF"/>
<path d="M208.806 179.569L277.887 179.569L277.887 178.963L208.806 178.963L208.806 179.569Z" fill="#8C95EF"/>
<path d="M208.806 178.452L277.887 178.452L277.887 177.846L208.806 177.846L208.806 178.452Z" fill="#8C95EF"/>
<path d="M208.806 177.334L277.887 177.334L277.887 176.728L208.806 176.728L208.806 177.334Z" fill="#8C95EF"/>
<path d="M208.806 176.216L277.887 176.216L277.887 175.611L208.806 175.611L208.806 176.216Z" fill="#8C95EF"/>
<path d="M208.806 190.744L277.887 190.744L277.887 190.139L208.806 190.139L208.806 190.744Z" fill="#8C95EF"/>
<path d="M208.806 189.627L277.887 189.627L277.887 189.021L208.806 189.021L208.806 189.627Z" fill="#8C95EF"/>
<path d="M208.806 188.509L277.887 188.509L277.887 187.904L208.806 187.904L208.806 188.509Z" fill="#8C95EF"/>
<path d="M208.806 187.392L277.887 187.392L277.887 186.786L208.806 186.786L208.806 187.392Z" fill="#8C95EF"/>
<path d="M208.806 186.274L277.887 186.274L277.887 185.668L208.806 185.668L208.806 186.274Z" fill="#8C95EF"/>
<path d="M208.806 185.156L277.887 185.156L277.887 184.551L208.806 184.551L208.806 185.156Z" fill="#8C95EF"/>
<path d="M208.806 184.039L277.887 184.039L277.887 183.434L208.806 183.434L208.806 184.039Z" fill="#8C95EF"/>
<path d="M208.806 198.567L277.887 198.567L277.887 197.962L208.806 197.962L208.806 198.567Z" fill="#8C95EF"/>
<path d="M208.806 197.449L277.887 197.449L277.887 196.844L208.806 196.844L208.806 197.449Z" fill="#8C95EF"/>
<path d="M208.806 196.332L277.887 196.332L277.887 195.727L208.806 195.727L208.806 196.332Z" fill="#8C95EF"/>
<path d="M208.806 195.214L277.887 195.214L277.887 194.609L208.806 194.609L208.806 195.214Z" fill="#8C95EF"/>
<path d="M208.806 194.096L277.887 194.096L277.887 193.491L208.806 193.491L208.806 194.096Z" fill="#8C95EF"/>
<path d="M208.806 192.98L277.887 192.98L277.887 192.374L208.806 192.374L208.806 192.98Z" fill="#8C95EF"/>
<path d="M208.806 191.862L277.887 191.862L277.887 191.256L208.806 191.256L208.806 191.862Z" fill="#8C95EF"/>
<path d="M208.806 206.39L277.887 206.39L277.887 205.785L208.806 205.785L208.806 206.39Z" fill="#8C95EF"/>
<path d="M208.806 205.273L277.887 205.273L277.887 204.667L208.806 204.667L208.806 205.273Z" fill="#8C95EF"/>
<path d="M208.806 204.155L277.887 204.155L277.887 203.55L208.806 203.55L208.806 204.155Z" fill="#8C95EF"/>
<path d="M208.806 203.037L277.887 203.037L277.887 202.432L208.806 202.432L208.806 203.037Z" fill="#8C95EF"/>
<path d="M208.806 201.919L277.887 201.919L277.887 201.314L208.806 201.314L208.806 201.919Z" fill="#8C95EF"/>
<path d="M208.806 200.802L277.887 200.802L277.887 200.197L208.806 200.197L208.806 200.802Z" fill="#8C95EF"/>
<path d="M208.806 199.684L277.887 199.684L277.887 199.079L208.806 199.079L208.806 199.684Z" fill="#8C95EF"/>
<path d="M208.806 210.86L277.887 210.86L277.887 210.255L208.806 210.255L208.806 210.86Z" fill="#8C95EF"/>
<path d="M208.806 209.742L277.887 209.742L277.887 209.136L208.806 209.136L208.806 209.742Z" fill="#8C95EF"/>
<path d="M208.806 208.624L277.887 208.624L277.887 208.019L208.806 208.019L208.806 208.624Z" fill="#8C95EF"/>
<path d="M208.806 207.507L277.887 207.507L277.887 206.902L208.806 206.902L208.806 207.507Z" fill="#8C95EF"/>
</g>
<path d="M161.007 210.754L161.009 210.755L208.299 163.464L208.299 163.464L208.299 146.519L191.354 146.519L191.354 146.521L144.066 193.809L144.065 193.809L144.065 210.754L161.007 210.754Z" fill="#8C95EF"/>
<path d="M143.027 95.4622L143.027 95.4626L191.29 143.726L191.291 143.725L191.291 143.726L208.584 143.726L208.584 126.433L208.582 126.433L160.32 78.1708L160.321 78.1695L143.027 78.1699L143.027 95.4622Z" fill="#F2EFDF"/>
<path d="M124.33 210.996L124.33 210.997L76.8817 163.549L76.8825 163.548L76.8808 163.548L76.8813 146.547L93.8818 146.547L93.8818 146.549L93.8822 146.548L141.329 193.995L141.33 193.995L141.33 210.996L124.33 210.996Z" fill="#FFFDF1"/>
<path d="M276.796 95.5128L276.795 95.5128L228.532 143.776L228.532 143.778L211.238 143.778L211.238 126.485L211.241 126.485L211.239 126.483L259.503 78.2197L259.502 77.9492L276.796 77.9488L276.796 95.5128Z" fill="#1CD874"/>
</svg>
